<svg width="209" height="258" viewBox="0 0 209 258" fill="none" xmlns="http://www.w3.org/2000/svg">
<g filter="url(#filter0_d_48_15)">
<rect x="0.831177" y="10.4585" width="200" height="180" transform="rotate(15.5721 0.831177 10.4585)" fill="#FFF8B0"/>
</g>
<path d="M48.5819 92.1793C50.4603 92.7028 51.6731 93.8453 52.2203 95.6069C52.7675 97.3684 52.7257 99.3811 52.0948 101.645C51.464 103.909 50.3271 105.815 48.6843 107.364C47.0619 108.902 45.5203 109.467 44.0593 109.06C43.0318 108.773 42.4383 107.985 42.2788 106.695C42.1193 105.405 42.2648 103.672 42.7154 101.496C41.7771 102.256 40.7067 103.117 39.5041 104.079C37.1902 105.926 35.696 106.755 35.0217 106.567C34.7648 106.496 34.526 106.204 34.3052 105.693C34.0843 105.181 34.0612 104.613 34.2357 103.986C34.4146 103.344 35.1839 101.422 36.5436 98.2193C37.9077 95.0007 38.8492 92.4602 39.3682 90.5978C39.5338 90.0038 39.7932 89.756 40.1464 89.8545C40.4996 89.9529 40.8508 90.2757 41.2001 90.8229C41.5654 91.3745 41.6988 91.8269 41.6004 92.1802C41.5064 92.5173 40.7615 94.135 39.3655 97.0333C37.9856 99.9361 36.9898 102.237 36.3782 103.935C37.8184 102.554 39.3432 101.335 40.9526 100.279C42.5826 99.2102 43.6624 98.7499 44.1923 98.8975C44.7381 99.0496 44.7799 100.359 44.3174 102.825C44.1472 103.747 44.0693 104.616 44.0837 105.433C44.1143 106.255 44.3302 106.722 44.7316 106.834C45.6307 107.084 46.6107 106.579 47.6716 105.317C48.7531 104.044 49.5399 102.525 50.032 100.759C50.5779 98.7998 50.565 97.1699 49.9933 95.8686C49.7004 95.1814 49.281 94.7618 48.7351 94.6096C48.2053 94.462 47.7992 94.1499 47.5168 93.6732C47.2504 93.201 47.1553 92.8285 47.2313 92.5556C47.3611 92.09 47.8113 91.9646 48.5819 92.1793ZM59.2365 94.2921C59.411 93.6659 59.6909 93.4066 60.0762 93.5139C60.3812 93.599 60.6352 93.9293 60.8381 94.5049C61.0571 95.0849 61.104 95.5998 60.9787 96.0493C60.6879 97.0929 59.9263 98.8011 58.6941 101.174C57.4824 103.535 56.1101 105.852 54.5773 108.124C56.9926 105.666 58.917 103.944 60.3506 102.959C61.8048 101.963 62.9172 101.572 63.6878 101.787C64.1052 101.903 64.4862 102.399 64.8307 103.274C65.1913 104.153 65.2709 104.953 65.0696 105.676C64.8683 106.398 64.3656 107.426 63.5615 108.759C61.555 112.11 60.1102 113.663 59.2271 113.417C58.8739 113.318 58.7645 113.028 58.8987 112.546C59.0329 112.065 59.4515 111.308 60.1545 110.275C61.6989 108.024 62.5919 106.465 62.8335 105.598C62.914 105.309 62.9089 105.048 62.8181 104.815C62.7273 104.582 62.5775 104.436 62.3688 104.378C62.1601 104.32 61.8719 104.361 61.5042 104.501C61.1366 104.64 60.6577 104.931 60.0676 105.372C59.3204 105.942 58.5245 106.594 57.6799 107.328C56.8514 108.066 56.3461 108.513 56.1639 108.67C56.0023 108.815 55.7019 109.086 55.2626 109.483C54.8394 109.884 54.522 110.185 54.3104 110.385C54.1033 110.57 53.8573 110.77 53.5725 110.984C53.0556 111.411 52.7008 111.598 52.5082 111.544C52.3155 111.49 52.1079 111.242 51.8852 110.8C51.667 110.341 51.5915 109.991 51.6586 109.75C51.7302 109.493 51.9504 109.044 52.3194 108.403C53.9812 105.544 55.0753 103.574 55.6017 102.492C57.5998 98.5507 58.8114 95.8173 59.2365 94.2921ZM74.0946 104.687C74.817 104.889 75.3804 105.444 75.7847 106.352C76.1934 107.245 76.315 107.988 76.1495 108.582C75.9884 109.16 75.6222 109.698 75.0508 110.196C75.1763 110.491 75.2145 110.726 75.1653 110.903C75.04 111.352 74.7209 112.094 74.2079 113.128C73.711 114.166 73.3915 114.847 73.2494 115.17C73.1233 115.498 73.0152 115.762 72.9249 115.962C72.8391 116.146 72.7453 116.327 72.6434 116.507C72.4673 116.89 72.2669 117.051 72.0422 116.988C71.7532 116.907 71.5817 116.591 71.5277 116.04C71.4943 115.477 71.5734 114.79 71.765 113.978C69.8305 115.394 68.2532 115.932 67.033 115.592C66.2945 115.386 65.6512 114.869 65.1033 114.042C64.5758 113.203 64.4061 112.446 64.594 111.772C64.8624 110.809 65.5467 109.719 66.6469 108.503C67.7515 107.271 69.0201 106.258 70.4526 105.463C71.8852 104.669 73.0992 104.41 74.0946 104.687ZM74.0212 109.235C74.4373 107.741 74.3483 106.912 73.7543 106.747C73.1281 106.572 72.2724 106.818 71.187 107.484C70.106 108.135 69.12 108.941 68.2288 109.904C67.3376 110.867 66.8003 111.677 66.6169 112.336C66.5408 112.609 66.5906 112.865 66.7661 113.104C66.9462 113.327 67.1887 113.481 67.4937 113.566C68.2483 113.777 69.2402 113.508 70.4693 112.76C71.7029 111.997 72.7079 110.936 73.4843 109.578C73.5995 109.351 73.7763 109.244 74.0145 109.259L74.0212 109.235ZM79.0168 116.336C78.9318 116.641 79.0659 116.843 79.4191 116.942C80.0292 117.112 80.8147 117.149 81.7756 117.053C82.7571 116.946 83.296 116.906 83.3923 116.933C83.6813 117.013 83.7833 117.206 83.6983 117.511C83.5685 117.977 82.937 118.38 81.8037 118.722C80.6864 119.068 79.7345 119.132 78.9478 118.912C78.1771 118.698 77.5931 118.31 77.1957 117.749C76.8027 117.173 76.6689 116.66 76.7942 116.21C76.9194 115.76 77.1746 115.217 77.5596 114.581C77.9492 113.928 78.4794 113.081 79.1502 112.039C79.8416 110.986 80.3968 110.112 80.8158 109.415C80.012 109.382 79.4817 109.329 79.2248 109.257C78.9679 109.186 78.7469 108.986 78.5616 108.657C78.3968 108.317 78.348 108.027 78.4151 107.786C78.5225 107.401 79.669 107.322 81.8545 107.551C82.5149 106.299 82.9882 105.159 83.2746 104.131C83.4088 103.65 83.6364 103.454 83.9575 103.543C84.2305 103.619 84.5184 103.89 84.8214 104.355C85.1288 104.804 85.2221 105.245 85.1013 105.678C84.9805 106.112 84.6315 106.837 84.0543 107.852C84.9918 108.027 85.7335 108.19 86.2793 108.343C87.2426 108.611 87.6661 108.954 87.5498 109.371C87.4827 109.612 87.1619 109.739 86.5873 109.752C86.0288 109.769 84.8677 109.714 83.1041 109.586C82.4134 110.76 81.5831 112.095 80.6129 113.589C79.6473 115.067 79.1153 115.983 79.0168 116.336ZM110.143 107.466C110.399 107.538 110.645 107.866 110.88 108.451C111.136 109.024 111.206 109.519 111.089 109.936C110.973 110.354 110.441 111.486 109.494 113.333C108.551 115.163 107.524 117.049 106.413 118.988C103.95 123.354 102.534 125.485 102.165 125.383C101.94 125.32 101.73 125.114 101.533 124.765C101.356 124.405 101.297 124.12 101.355 123.911C101.414 123.702 101.586 123.301 101.873 122.706C99.8522 123.873 98.2558 124.293 97.0838 123.966C96.3774 123.77 95.8247 123.27 95.4257 122.466C95.0427 121.667 94.9475 120.923 95.1398 120.233C95.4172 119.237 96.011 118.131 96.9211 116.914C97.8518 115.685 98.9794 114.65 100.304 113.808C101.629 112.966 102.861 112.704 104.001 113.022C105.141 113.339 105.745 114.243 105.815 115.733C107.582 112.558 108.781 109.994 109.411 108.041C109.546 107.56 109.789 107.368 110.143 107.466ZM104.198 118.553C104.44 117.686 104.491 116.913 104.351 116.234C104.228 115.559 103.958 115.164 103.54 115.047C102.85 114.855 102.025 115.083 101.065 115.733C100.106 116.383 99.2547 117.201 98.5125 118.188C97.7909 119.163 97.3182 120.052 97.0945 120.855C97.0139 121.144 97.0534 121.406 97.2129 121.641C97.3724 121.876 97.5966 122.033 97.8856 122.114C98.5118 122.288 99.4799 122.074 100.79 121.47C102.116 120.87 103.19 120.028 104.012 118.942L104.165 118.673L104.198 118.553ZM116.106 120.807C116.258 120.261 116.313 119.723 116.27 119.192C116.233 118.645 116.076 118.212 115.802 117.893C114.609 117.89 113.414 118.482 112.218 119.672C111.042 120.849 110.282 122.056 109.937 123.292C109.593 124.528 109.683 125.384 110.208 125.859C111.427 125.957 112.625 125.443 113.804 124.318C115.003 123.181 115.77 122.011 116.106 120.807ZM109.712 119.259C110.623 118.163 111.64 117.339 112.762 116.787C113.906 116.223 114.951 116.073 115.898 116.337C116.861 116.606 117.55 117.239 117.964 118.236C118.383 119.218 118.429 120.295 118.102 121.467C117.78 122.623 117.168 123.733 116.266 124.796C115.368 125.844 114.31 126.63 113.091 127.156C111.892 127.669 110.739 127.772 109.631 127.463C108.812 127.235 108.235 126.668 107.9 125.761C107.564 124.854 107.557 123.823 107.88 122.667C108.206 121.495 108.817 120.359 109.712 119.259ZM23.7008 117.634C23.9577 117.706 24.1769 117.975 24.3585 118.44C24.5607 118.895 24.5969 119.355 24.4671 119.82C24.3776 120.141 23.7443 121.141 22.567 122.82C21.3897 124.499 20.5868 125.642 20.158 126.25C19.7498 126.845 19.1907 127.641 18.4806 128.637C17.791 129.621 17.1162 130.584 16.4561 131.524C15.0135 133.596 13.4895 134.409 11.884 133.961C10.9689 133.706 10.1722 133.182 9.49395 132.387C8.81122 131.608 8.55263 130.922 8.71817 130.328C8.78081 130.103 8.95452 129.884 9.23929 129.669C9.50801 129.45 9.71462 129.36 9.85911 129.4C10.0036 129.441 10.1872 129.682 10.4099 130.125C11.0457 131.444 11.6928 132.195 12.3511 132.379C12.8488 132.517 13.4213 132.201 14.0688 131.43C14.7118 130.675 15.3642 129.793 16.0261 128.783C16.6997 127.794 17.0681 127.248 17.1315 127.145C17.211 127.046 17.2995 126.915 17.3968 126.752C17.5103 126.593 17.6112 126.448 17.6996 126.317C16.1258 127.557 14.7849 128.022 13.6771 127.713C13.0028 127.526 12.4639 127.038 12.0604 126.251C11.673 125.468 11.5979 124.651 11.835 123.8C12.0721 122.949 12.6007 121.86 13.4208 120.531C14.241 119.202 15.0796 118.087 15.9368 117.184C16.794 116.281 17.3993 115.878 17.7525 115.977C18.0415 116.057 18.2683 116.267 18.4331 116.608C18.6184 116.936 18.673 117.237 18.5969 117.51C18.5209 117.783 18.1533 118.294 17.4943 119.045C15.4511 121.348 14.2237 123.238 13.8121 124.715C13.7405 124.971 13.7604 125.211 13.8717 125.432C13.9875 125.637 14.1578 125.771 14.3826 125.834C14.9606 125.995 15.7941 125.674 16.8832 124.87C17.9723 124.066 19.0509 123.052 20.1189 121.827C21.0119 120.795 22.0207 119.441 23.1453 117.765C23.2588 117.606 23.4439 117.563 23.7008 117.634ZM31.7052 124.277C31.8573 123.731 31.9122 123.193 31.8698 122.662C31.8319 122.115 31.6757 121.682 31.4011 121.363C30.2083 121.36 29.0137 121.952 27.8172 123.142C26.6413 124.319 25.8811 125.526 25.5366 126.762C25.192 127.998 25.2823 128.854 25.8074 129.329C27.026 129.427 28.2246 128.913 29.4032 127.788C30.6023 126.651 31.3696 125.481 31.7052 124.277ZM25.3111 122.729C26.222 121.633 27.2389 120.809 28.3616 120.257C29.5049 119.693 30.5502 119.543 31.4975 119.807C32.4608 120.076 33.1494 120.709 33.5634 121.706C33.9819 122.688 34.0278 123.765 33.7012 124.937C33.3791 126.093 32.767 127.203 31.8651 128.266C30.9676 129.314 29.9093 130.1 28.6902 130.626C27.4916 131.139 26.3384 131.242 25.2306 130.933C24.4118 130.705 23.8346 130.138 23.4991 129.231C23.1635 128.324 23.1568 127.293 23.4789 126.137C23.8055 124.965 24.4162 123.829 25.3111 122.729ZM44.8227 124.247C44.9586 124.008 45.072 123.85 45.1631 123.771C45.2541 123.693 45.404 123.683 45.6127 123.741C45.8375 123.803 46.0442 124.086 46.2329 124.588C46.4377 125.095 46.4864 125.541 46.379 125.927C46.3209 126.135 45.6231 127.273 44.2859 129.34C42.9486 131.407 41.9016 133.053 41.1449 134.278C40.7644 134.899 40.3975 135.16 40.0443 135.061C39.8356 135.003 39.6836 134.866 39.5883 134.649C39.493 134.432 39.5102 134.091 39.64 133.625C39.7697 133.16 40.1893 132.368 40.8986 131.251C39.92 132.155 38.939 132.85 37.9554 133.337C36.9719 133.825 36.151 133.976 35.4927 133.793C34.8505 133.614 34.3254 133.139 33.9175 132.368C33.5095 131.597 33.395 130.89 33.574 130.248C33.999 128.723 34.9707 126.943 36.4891 124.909C38.028 122.864 39.0944 121.924 39.6885 122.09C39.9775 122.17 40.1883 122.376 40.3209 122.707C40.4741 123.027 40.5037 123.355 40.4098 123.692C40.3695 123.837 40.0073 124.298 39.3233 125.076C38.6437 125.839 37.9194 126.761 37.1504 127.845C36.3858 128.912 35.8783 129.895 35.6277 130.794C35.5561 131.051 35.576 131.29 35.6873 131.512C35.8031 131.717 35.9734 131.851 36.1982 131.913C36.8083 132.083 37.6806 131.747 38.8153 130.904C39.9659 130.065 41.0856 129.028 42.1741 127.791C43.2627 126.555 44.1456 125.373 44.8227 124.247ZM58.3719 130.463L58.803 128.636C59.0133 127.882 59.295 127.554 59.6482 127.652C59.9533 127.737 60.1863 128.018 60.3474 128.496C60.529 128.962 60.5437 129.468 60.3916 130.013C60.244 130.543 60.1161 130.94 60.0079 131.204C61.9953 129.474 63.6151 128.784 64.8674 129.133C65.6541 129.352 65.9937 129.654 65.8863 130.039C65.8326 130.232 65.6951 130.384 65.4738 130.495C65.2524 130.607 64.92 130.713 64.4765 130.814C63.5227 130.947 62.6414 131.315 61.8326 131.92C61.0444 132.514 60.3314 133.241 59.6937 134.101C59.0559 134.961 58.533 135.689 58.1248 136.285C57.7326 136.885 57.4289 137.354 57.2136 137.692C56.9983 138.03 56.7692 138.356 56.5263 138.668C56.0904 139.239 55.7039 139.477 55.3668 139.383C55.0939 139.307 54.9116 139.092 54.82 138.738C54.7489 138.372 54.7537 138.045 54.8342 137.756C54.9192 137.451 55.2212 136.895 55.7402 136.088C56.9622 134.248 57.8394 132.373 58.3719 130.463ZM74.2131 136.019C73.9759 136.87 73.3157 137.439 72.2324 137.725C71.1696 138 70.0522 137.974 68.8802 137.647C67.7243 137.325 66.7085 136.904 65.8328 136.383C65.4112 137.027 65.1221 137.63 64.9655 138.191C64.8134 138.737 64.8634 139.21 65.1155 139.609C65.3837 140.012 65.9112 140.324 66.6978 140.543C67.5006 140.767 68.3574 140.858 69.2683 140.818C70.1998 140.766 70.7056 140.751 70.7859 140.774C71.2033 140.89 71.3673 141.109 71.2778 141.43C71.157 141.863 70.5354 142.201 69.4128 142.441C68.2948 142.666 67.2702 142.649 66.339 142.389C65.0867 142.04 64.1701 141.387 63.5893 140.429C63.0128 139.455 62.8835 138.398 63.2011 137.259C63.5188 136.119 64.1549 135.016 65.1095 133.949C66.0686 132.867 67.1484 132.035 68.3488 131.452C69.5492 130.87 70.623 130.711 71.5703 130.975C72.5175 131.239 73.2512 131.927 73.7713 133.041C74.3074 134.16 74.4547 135.152 74.2131 136.019ZM71.1605 132.911C70.5665 132.745 69.8611 132.886 69.0444 133.333C68.2322 133.764 67.4738 134.375 66.7693 135.165C67.3712 135.488 68.0815 135.764 68.9003 135.992C69.7191 136.22 70.4694 136.291 71.1511 136.204C71.8372 136.101 72.2407 135.833 72.3615 135.399C72.4823 134.966 72.4046 134.468 72.1285 133.907C71.8685 133.35 71.5458 133.018 71.1605 132.911ZM84.5799 140.465C84.4009 141.108 83.9164 141.76 83.1263 142.422C82.4199 143.281 81.5606 144.564 80.5483 146.271C79.5406 147.963 78.7585 149.155 78.2021 149.848C77.0714 151.297 75.8077 151.828 74.4109 151.438C73.271 151.121 72.395 150.539 71.7828 149.694C71.1822 148.869 70.9669 148.151 71.1369 147.541C71.2085 147.284 71.3603 147.05 71.5925 146.838C71.8086 146.621 71.9969 146.535 72.1574 146.58C72.334 146.629 72.4931 146.803 72.6347 147.102C72.7763 147.401 72.8974 147.712 72.998 148.034C73.1101 148.377 73.3172 148.72 73.6194 149.064C73.9376 149.412 74.2733 149.635 74.6265 149.734C74.9797 149.832 75.2603 149.85 75.4682 149.787C75.6716 149.739 75.8872 149.618 76.1148 149.422C76.338 149.242 76.5394 149.047 76.7189 148.837C76.8939 148.644 77.106 148.348 77.3553 147.951C77.6161 147.574 77.8291 147.244 77.9944 146.961C78.1597 146.678 78.3907 146.284 78.6873 145.779C78.9884 145.257 79.2341 144.841 79.4243 144.531C77.9126 145.113 76.7633 145.294 75.9766 145.075C75.1899 144.856 74.5949 144.353 74.1914 143.565C73.7924 142.762 73.7092 141.943 73.9418 141.108C74.179 140.257 74.8052 139.221 75.8206 137.998C76.8521 136.781 78.06 135.768 79.4444 134.96C80.8288 134.152 82.0347 133.891 83.0623 134.177C83.7205 134.361 84.2051 134.764 84.5159 135.387C85.0262 136.411 85.0711 137.678 84.6505 139.187C84.5969 139.38 84.5508 139.514 84.5124 139.59C84.629 139.917 84.6515 140.209 84.5799 140.465ZM75.8254 141.893C75.7493 142.166 75.775 142.415 75.9024 142.641C76.0343 142.851 76.2366 142.993 76.5096 143.07C77.3123 143.293 78.3916 143.084 79.7473 142.441C81.1074 141.782 82.189 140.88 82.992 139.737C82.986 139.511 83.0193 139.174 83.0919 138.727C83.1645 138.28 83.2126 137.922 83.236 137.651C83.2594 137.381 83.2266 137.095 83.1377 136.793C83.0532 136.476 82.8825 136.281 82.6256 136.21C81.9995 136.035 81.1678 136.288 80.1306 136.968C79.0933 137.647 78.1635 138.47 77.341 139.434C76.5185 140.399 76.0133 141.218 75.8254 141.893ZM88.6159 138.891L89.047 137.065C89.2573 136.31 89.539 135.982 89.8922 136.081C90.1973 136.166 90.4303 136.447 90.5914 136.924C90.773 137.39 90.7878 137.896 90.6356 138.442C90.488 138.972 90.3601 139.369 90.2519 139.632C92.2393 137.902 93.8591 137.212 95.1114 137.561C95.8981 137.78 96.2377 138.082 96.1304 138.468C96.0767 138.66 95.9391 138.812 95.7178 138.924C95.4965 139.035 95.164 139.141 94.7206 139.243C93.7667 139.375 92.8854 139.744 92.0767 140.349C91.2884 140.942 90.5754 141.669 89.9377 142.529C89.3 143.39 88.777 144.118 88.3688 144.713C87.9767 145.314 87.6729 145.783 87.4576 146.121C87.2423 146.458 87.0132 146.784 86.7703 147.097C86.3345 147.667 85.948 147.906 85.6108 147.812C85.3379 147.736 85.1556 147.521 85.064 147.166C84.993 146.801 84.9977 146.473 85.0782 146.184C85.1632 145.879 85.4652 145.323 85.9843 144.516C87.2063 142.677 88.0835 140.802 88.6159 138.891ZM104.457 144.448C104.22 145.299 103.56 145.867 102.476 146.154C101.414 146.428 100.296 146.402 99.1243 146.076C97.9683 145.754 96.9525 145.332 96.0768 144.811C95.6552 145.455 95.3661 146.058 95.2095 146.62C95.0574 147.166 95.1074 147.638 95.3595 148.037C95.6277 148.441 96.1552 148.752 96.9419 148.971C97.7446 149.195 98.6014 149.287 99.5124 149.246C100.444 149.194 100.95 149.18 101.03 149.202C101.447 149.318 101.611 149.537 101.522 149.858C101.401 150.292 100.779 150.629 99.6569 150.87C98.5388 151.095 97.5142 151.077 96.583 150.818C95.3307 150.469 94.4142 149.815 93.8333 148.858C93.2569 147.884 93.1275 146.827 93.4452 145.687C93.7628 144.547 94.399 143.444 95.3536 142.378C96.3126 141.296 97.3924 140.463 98.5928 139.881C99.7932 139.298 100.867 139.139 101.814 139.403C102.762 139.667 103.495 140.356 104.015 141.47C104.551 142.588 104.699 143.581 104.457 144.448ZM101.405 141.339C100.811 141.174 100.105 141.314 99.2885 141.762C98.4762 142.193 97.7178 142.803 97.0133 143.593C97.6152 143.916 98.3256 144.192 99.1444 144.42C99.9632 144.649 100.713 144.719 101.395 144.632C102.081 144.529 102.485 144.261 102.606 143.828C102.726 143.394 102.649 142.897 102.373 142.336C102.113 141.779 101.79 141.446 101.405 141.339ZM106.844 151.082C106.759 151.387 106.893 151.589 107.246 151.687C107.856 151.857 108.642 151.894 109.602 151.799C110.584 151.692 111.123 151.651 111.219 151.678C111.508 151.759 111.61 151.952 111.525 152.257C111.395 152.722 110.764 153.126 109.63 153.468C108.513 153.814 107.561 153.877 106.775 153.658C106.004 153.443 105.42 153.055 105.022 152.495C104.63 151.918 104.496 151.405 104.621 150.955C104.746 150.506 105.001 149.963 105.386 149.326C105.776 148.673 106.306 147.826 106.977 146.785C107.668 145.732 108.224 144.857 108.643 144.161C107.839 144.127 107.308 144.074 107.052 144.003C106.795 143.931 106.574 143.731 106.388 143.403C106.224 143.063 106.175 142.772 106.242 142.531C106.349 142.146 107.496 142.068 109.681 142.296C110.342 141.044 110.815 139.904 111.101 138.877C111.236 138.395 111.463 138.199 111.784 138.289C112.057 138.365 112.345 138.635 112.648 139.1C112.956 139.549 113.049 139.99 112.928 140.424C112.807 140.857 112.458 141.582 111.881 142.598C112.819 142.772 113.56 142.936 114.106 143.088C115.069 143.356 115.493 143.699 115.377 144.117C115.309 144.358 114.989 144.485 114.414 144.497C113.856 144.515 112.695 144.459 110.931 144.331C110.24 145.506 109.41 146.84 108.44 148.334C107.474 149.813 106.942 150.729 106.844 151.082ZM117.267 157.049C116.882 156.942 116.502 156.568 116.127 155.927C115.772 155.274 115.642 154.779 115.736 154.442C115.83 154.105 116.058 153.814 116.42 153.569C116.787 153.308 117.107 153.215 117.38 153.291C117.653 153.368 117.873 153.853 118.039 154.747C118.209 155.625 118.241 156.256 118.133 156.642C118.102 156.754 117.986 156.86 117.785 156.96C117.584 157.06 117.412 157.089 117.267 157.049ZM122.409 141.95L122.283 142.59C122.229 142.782 122.085 142.898 121.849 142.936C121.634 142.963 121.446 142.954 121.286 142.909C121.141 142.869 120.968 142.621 120.766 142.167C120.564 141.713 120.498 141.357 120.57 141.1C120.816 140.217 121.429 139.54 122.408 139.069C123.387 138.598 124.398 138.508 125.442 138.799C126.485 139.089 127.277 139.665 127.816 140.524C128.371 141.388 128.492 142.382 128.178 143.506C127.995 144.164 127.578 144.792 126.927 145.389C126.292 145.991 125.628 146.481 124.934 146.858C122.886 148 121.529 148.989 120.864 149.824C120.214 150.664 119.8 151.128 119.619 151.216C119.439 151.305 119.293 151.333 119.18 151.302C118.779 151.19 118.722 150.62 119.008 149.593C119.191 148.934 119.637 148.297 120.345 147.681C121.069 147.07 121.806 146.566 122.557 146.17C123.328 145.762 124.059 145.282 124.749 144.73C125.46 144.167 125.889 143.621 126.036 143.091C126.184 142.561 126.124 142.094 125.855 141.691C125.608 141.276 125.235 140.999 124.737 140.86C124.24 140.721 123.756 140.751 123.285 140.949C122.831 141.151 122.539 141.485 122.409 141.95Z" fill="black"/>
<defs>
<filter id="filter0_d_48_15" x="-62.4899" y="0.458496" width="270.98" height="257.083" filterUnits="userSpaceOnUse" color-interpolation-filters="sRGB">
<feFlood flood-opacity="0" result="BackgroundImageFix"/>
<feColorMatrix in="SourceAlpha" type="matrix" values="0 0 0 0 0 0 0 0 0 0 0 0 0 0 0 0 0 0 127 0" result="hardAlpha"/>
<feOffset dy="5"/>
<feGaussianBlur stdDeviation="7.5"/>
<feColorMatrix type="matrix" values="0 0 0 0 0 0 0 0 0 0 0 0 0 0 0 0 0 0 0.25 0"/>
<feBlend mode="normal" in2="BackgroundImageFix" result="effect1_dropShadow_48_15"/>
<feBlend mode="normal" in="SourceGraphic" in2="effect1_dropShadow_48_15" result="shape"/>
</filter>
</defs>
</svg>
